<svg width="575" height="90" viewBox="0 0 575 90" fill="none" xmlns="http://www.w3.org/2000/svg">
<path d="M66.4895 8.7224C67.6795 11.3255 68.6091 16.0481 69.2785 22.8905C69.9478 29.7328 70.2825 35.3479 70.2825 39.736C69.3157 40.1078 67.791 40.4053 65.7086 40.6284C63.7005 40.8516 61.8784 40.9631 60.2422 40.9631C59.7959 35.0133 59.0522 30.4393 58.011 27.2413C57.0441 24.0432 55.7054 21.8492 53.9948 20.6593C52.2842 19.4693 50.0531 18.8743 47.3013 18.8743H45.4047V74.7657C45.4047 76.8481 46.3716 78.3728 48.3053 79.3396C50.239 80.3065 53.2139 80.7899 57.2301 80.7899C57.2301 82.1286 57.0069 83.4301 56.5607 84.6945C56.1145 85.9588 55.4823 87.0372 54.6642 87.9297H16.7339C15.9902 87.0372 15.3952 85.9588 14.949 84.6945C14.5027 83.4301 14.2796 82.1286 14.2796 80.7899C22.6838 80.7899 26.8859 78.7818 26.8859 74.7657V18.8743H24.4315C16.6224 18.8743 12.1228 26.2373 10.9328 40.9631C5.72672 40.74 2.37994 40.3309 0.892476 39.736C0.892476 35.3479 1.22716 29.7328 1.89651 22.8905C2.56587 16.0481 3.49553 11.3255 4.6855 8.7224C8.10666 8.7224 11.156 9.16864 13.8334 10.0611H57.3416C60.1678 9.16864 63.2171 8.7224 66.4895 8.7224ZM134.543 84.9176C131.865 87.3719 127.775 88.599 122.271 88.599C114.759 88.599 111.003 86.2563 111.003 81.5708V45.6486C111.003 43.2687 110.334 41.4465 108.995 40.1822C107.731 38.8435 105.983 38.1741 103.752 38.1741C102.265 38.1741 100.703 38.6575 99.0666 39.6244C97.5048 40.5912 96.352 41.8184 95.6082 43.3059V75.8813C95.6082 78.0381 96.0545 79.5999 96.947 80.5668C97.9138 81.4592 99.5128 81.9055 101.744 81.9055C101.744 84.211 100.889 86.2191 99.1781 87.9297H74.5235C72.8129 86.2191 71.9576 84.211 71.9576 81.9055C74.1888 81.9055 75.7506 81.4592 76.6431 80.5668C77.61 79.5999 78.0934 78.0381 78.0934 75.8813V15.416C78.0934 13.5566 77.5728 12.1807 76.5316 11.2883C75.4903 10.3958 73.5194 9.94955 70.6189 9.94955V5.37562C73.2963 3.96252 76.6803 2.73537 80.7708 1.69414C84.9357 0.57855 88.2825 0.0207529 90.8112 0.0207529C92.5218 0.0207529 93.7489 0.429806 94.4926 1.24791C95.2364 1.99164 95.6082 3.29317 95.6082 5.15249V27.1297L95.3851 36.0545C97.3932 33.4514 99.9219 31.3318 102.971 29.6956C106.095 28.0594 109.516 27.2413 113.235 27.2413C118.441 27.2413 122.383 28.6544 125.06 31.4805C127.737 34.2324 129.076 38.3229 129.076 43.7521V74.9888C129.076 76.8481 129.522 78.3356 130.415 79.4512C131.382 80.5668 132.72 81.3105 134.431 81.6824L134.543 84.9176ZM137.43 72.1998C137.43 67.2168 139.066 63.275 142.339 60.3745C145.611 57.4739 150.445 56.0237 156.841 56.0237C159.073 56.0237 161.341 56.2468 163.646 56.693C166.026 57.1392 167.96 57.7342 169.448 58.478V43.6405C169.448 40.6656 168.704 38.546 167.216 37.2816C165.729 35.9429 163.721 35.2736 161.192 35.2736C158.738 35.2736 156.73 35.8686 155.168 37.0585C156.581 37.5048 157.622 38.2857 158.292 39.4013C159.035 40.4425 159.407 41.6325 159.407 42.9712C159.407 45.3511 158.552 47.2848 156.841 48.7723C155.131 50.2597 152.974 51.0035 150.371 51.0035C147.545 51.0035 145.276 50.1854 143.566 48.5492C141.855 46.913 141 44.7933 141 42.1903C141 39.5872 141.892 37.1329 143.677 34.8273C145.462 32.5218 148.177 30.6624 151.821 29.2494C155.54 27.8363 160.114 27.1297 165.543 27.1297C172.906 27.1297 178.484 28.6544 182.277 31.7037C186.07 34.6786 187.966 39.0666 187.966 44.8677V74.431C187.966 78.0009 189.677 80.1577 193.098 80.9014V84.4713C192.131 85.8101 190.532 86.8513 188.301 87.595C186.07 88.3387 183.802 88.7106 181.496 88.7106C176.439 88.7106 172.869 86.9628 170.786 83.4673C169.076 84.9548 166.993 86.2191 164.539 87.2603C162.085 88.2272 159.296 88.7106 156.172 88.7106C150.594 88.7106 146.057 87.186 142.562 84.1367C139.141 81.013 137.43 77.034 137.43 72.1998ZM169.448 67.068C168.629 66.5474 167.625 66.1012 166.435 65.7293C165.32 65.3575 164.241 65.1715 163.2 65.1715C161.118 65.1715 159.407 65.8409 158.068 67.1796C156.73 68.444 156.06 70.3033 156.06 72.7576C156.06 74.7657 156.73 76.4391 158.068 77.7778C159.407 79.0421 161.192 79.6743 163.423 79.6743C164.539 79.6743 165.617 79.5255 166.659 79.228C167.774 78.8562 168.704 78.4099 169.448 77.8893V67.068ZM259.301 84.9176C258.185 86.0332 256.177 86.9257 253.277 87.595C250.45 88.2644 247.736 88.599 245.133 88.599C241.935 88.599 239.555 88.0041 237.993 86.8141C236.506 85.6241 235.762 83.7276 235.762 81.1246V46.318C235.762 43.4174 235.13 41.335 233.865 40.0706C232.601 38.8063 230.928 38.1741 228.845 38.1741C225.796 38.1741 223.23 39.4013 221.148 41.8556V75.8813C221.148 78.0381 221.594 79.5999 222.486 80.5668C223.453 81.5336 225.052 82.017 227.283 82.017C227.283 84.2482 226.428 86.2191 224.717 87.9297H199.393C197.608 86.1447 196.716 84.1738 196.716 82.017C198.947 82.017 200.546 81.5336 201.513 80.5668C202.48 79.5999 202.963 78.0381 202.963 75.8813V43.3059C202.963 41.2978 202.406 39.8847 201.29 39.0666C200.174 38.1741 198.241 37.7279 195.489 37.7279V32.7077C197.869 31.369 201.216 30.1418 205.529 29.0262C209.917 27.9106 213.227 27.3528 215.458 27.3528C217.169 27.3528 218.47 27.9106 219.363 29.0262C220.329 30.0675 220.887 32.0755 221.036 35.0505C222.97 32.6705 225.387 30.8112 228.287 29.4725C231.188 28.0594 234.46 27.3528 238.105 27.3528C243.459 27.3528 247.401 28.7287 249.93 31.4805C252.533 34.158 253.834 38.5832 253.834 44.7561V75.2119C253.834 78.8562 255.619 81.013 259.189 81.6824L259.301 84.9176ZM324.314 84.1367C324.091 85.6985 323.05 86.9257 321.19 87.8181C319.405 88.6362 317.1 89.0453 314.274 89.0453C310.481 89.0453 307.32 88.2272 304.791 86.591C302.337 84.9548 300.403 82.9839 298.99 80.6783C297.577 78.3728 296.052 75.3606 294.416 71.642C292.78 67.9977 291.329 65.2087 290.065 63.275C288.875 61.3413 287.313 60.0026 285.38 59.2589V76.3275C285.38 78.4843 285.826 80.0461 286.718 81.013C287.685 81.9055 289.321 82.3517 291.627 82.3517C291.627 84.6573 290.734 86.6282 288.95 88.2644H264.406C262.621 86.7025 261.729 84.7316 261.729 82.3517C263.96 82.3517 265.522 81.9055 266.415 81.013C267.381 80.0461 267.865 78.4843 267.865 76.3275V15.8622C267.865 14.0029 267.344 12.627 266.303 11.7345C265.262 10.7677 263.291 10.2842 260.39 10.2842V5.82185C263.068 4.40876 266.452 3.14442 270.542 2.02883C274.707 0.913231 277.98 0.355434 280.359 0.355434C282.144 0.355434 283.409 0.764485 284.152 1.58259C284.971 2.40069 285.38 3.73941 285.38 5.59873V55.2427L297.651 42.5249C299.064 41.1119 299.771 39.9963 299.771 39.1782C299.771 38.1369 298.953 37.1701 297.316 36.2776C295.755 35.3851 294.23 34.9389 292.743 34.9389C292.743 33.6746 292.966 32.4474 293.412 31.2574C293.858 30.0675 294.49 29.0262 295.308 28.1338H320.409C321.822 29.5469 322.529 31.8152 322.529 34.9389C320.744 34.9389 319.331 35.1992 318.29 35.7198C317.323 36.2404 316.319 36.9842 315.278 37.951L298.321 54.6849C301.072 55.1312 303.378 56.0608 305.237 57.4739C307.171 58.8126 308.919 60.8951 310.481 63.7213C312.34 67.068 313.307 68.8158 313.381 68.9646C315.835 73.5013 317.658 76.5506 318.847 78.1124C320.112 79.5999 321.897 80.7155 324.202 81.4592L324.314 84.1367ZM414.681 10.0611C416.466 11.9948 417.358 14.3376 417.358 17.0894C415.499 17.0894 414.086 17.2753 413.119 17.6472C412.226 17.9447 411.483 18.4281 410.888 19.0974C410.367 19.7668 409.66 20.9568 408.768 22.6673L389.357 57.9202V75.2119C389.357 77.1456 390.398 78.5587 392.48 79.4512C394.563 80.3436 397.091 80.7899 400.066 80.7899C400.066 82.1286 399.843 83.4301 399.397 84.6945C398.951 85.9588 398.356 87.0372 397.612 87.9297H364.033C363.289 87.0372 362.694 85.9588 362.248 84.6945C361.801 83.4301 361.578 82.1286 361.578 80.7899C364.404 80.7899 366.822 80.3436 368.83 79.4512C370.838 78.5587 371.842 77.1456 371.842 75.2119V60.486L349.641 21.998C348.823 20.5849 347.633 19.4321 346.071 18.5396C344.51 17.5728 342.948 17.0894 341.386 17.0894C341.386 14.3376 342.278 11.9948 344.063 10.0611H374.184C375.895 11.9204 376.75 14.2632 376.75 17.0894C372.288 17.0894 370.057 18.5396 370.057 21.4402C370.057 22.7789 370.652 24.6382 371.842 27.0182L382.551 47.2104L394.823 24.1176C395.195 23.3739 395.381 22.6673 395.381 21.998C395.381 20.6593 394.711 19.5065 393.373 18.5396C392.108 17.5728 390.584 17.0894 388.799 17.0894C388.799 14.2632 389.654 11.9204 391.365 10.0611H414.681ZM437.872 89.38C429.691 89.38 423.146 86.8141 418.237 81.6824C413.329 76.4762 410.874 69.0761 410.874 59.482C410.874 52.6397 412.027 46.8014 414.333 41.9671C416.713 37.1329 420.022 33.4886 424.262 31.0343C428.501 28.58 433.409 27.3528 438.987 27.3528C444.342 27.3528 449.028 28.5428 453.044 30.9228C457.134 33.2283 460.295 36.6495 462.527 41.1862C464.832 45.723 465.985 51.2266 465.985 57.697C465.985 64.465 464.795 70.2289 462.415 74.9888C460.109 79.7487 456.837 83.3557 452.598 85.8101C448.358 88.19 443.45 89.38 437.872 89.38ZM438.764 81.3477C441.367 81.3477 443.301 79.8602 444.565 76.8853C445.83 73.9104 446.462 68.4068 446.462 60.3745C446.462 53.6065 446.127 48.4004 445.458 44.7561C444.789 41.1119 443.859 38.6204 442.669 37.2816C441.479 35.9429 439.954 35.2736 438.095 35.2736C435.492 35.2736 433.521 36.761 432.182 39.736C430.918 42.7109 430.286 48.2889 430.286 56.4699C430.286 63.1635 430.62 68.3324 431.29 71.9767C431.959 75.5466 432.889 78.0009 434.079 79.3396C435.343 80.6783 436.905 81.3477 438.764 81.3477ZM523.81 74.8772C523.81 76.6622 524.256 78.1496 525.149 79.3396C526.116 80.5296 527.454 81.1989 529.165 81.3477V84.4713C527.975 85.8101 526.116 86.8513 523.587 87.595C521.133 88.3387 518.641 88.7106 516.113 88.7106C513.584 88.7106 511.427 88.0412 509.642 86.7025C507.857 85.3638 506.667 83.5045 506.072 81.1246C502.502 86.1819 497.408 88.7106 490.788 88.7106C485.582 88.7106 481.529 87.1116 478.628 83.9135C475.728 80.7155 474.278 76.4019 474.278 70.9726V40.2938C474.278 39.0294 473.794 38.1369 472.827 37.6163C471.935 37.0957 470.596 36.8354 468.811 36.8354V31.9268C469.927 31.0343 472.046 30.1418 475.17 29.2494C478.368 28.3569 481.752 27.9106 485.322 27.9106C487.405 27.9106 488.929 28.0594 489.896 28.3569C490.863 28.58 491.532 29.1006 491.904 29.9187C492.276 30.7368 492.462 32.0383 492.462 33.8233V71.3073C492.462 73.6129 492.834 75.3606 493.577 76.5506C494.396 77.6662 495.697 78.224 497.482 78.224C498.97 78.224 500.42 77.7778 501.833 76.8853C503.32 75.9184 504.585 74.7657 505.626 73.4269V40.2938C505.626 37.9882 503.543 36.8354 499.379 36.8354V31.9268C500.569 30.9599 502.725 30.0675 505.849 29.2494C509.047 28.3569 512.543 27.9106 516.336 27.9106C519.385 27.9106 521.393 28.2825 522.36 29.0262C523.327 29.6956 523.81 31.2946 523.81 33.8233V74.8772ZM558.989 53.5693L553.522 9.94955C553.448 9.35457 553.411 8.57365 553.411 7.6068C553.411 2.54944 556.014 0.0207529 561.22 0.0207529H566.017C571.298 0.0207529 573.938 2.54944 573.938 7.6068C573.938 7.97867 573.863 8.75959 573.715 9.94955L568.137 53.5693H558.989ZM574.942 78.3356C574.942 81.608 573.901 84.2854 571.818 86.3679C569.736 88.3759 566.984 89.38 563.563 89.38C560.216 89.38 557.501 88.3759 555.419 86.3679C553.411 84.2854 552.407 81.608 552.407 78.3356C552.407 74.9888 553.411 72.3113 555.419 70.3033C557.501 68.2952 560.216 67.2912 563.563 67.2912C566.984 67.2912 569.736 68.2952 571.818 70.3033C573.901 72.3113 574.942 74.9888 574.942 78.3356Z" fill="#FF9300"/>
</svg>
