<svg width="215" height="34" viewBox="0 0 215 34" fill="none" xmlns="http://www.w3.org/2000/svg">
<path d="M25.0894 3.36673C25.5323 4.33575 25.8784 6.09382 26.1276 8.64095C26.3768 11.1881 26.5014 13.2784 26.5014 14.9119C26.1414 15.0503 25.5739 15.1611 24.7987 15.2441C24.0511 15.3272 23.3728 15.3687 22.7637 15.3687C22.5976 13.1538 22.3207 11.4511 21.9331 10.2606C21.5732 9.07009 21.0749 8.25334 20.4381 7.81036C19.8013 7.36739 18.9707 7.1459 17.9463 7.1459H17.2403V27.9521C17.2403 28.7273 17.6002 29.2949 18.3201 29.6548C19.0399 30.0147 20.1474 30.1947 21.6424 30.1947C21.6424 30.693 21.5594 31.1775 21.3933 31.6482C21.2271 32.1189 20.9918 32.5203 20.6873 32.8525H6.56729C6.29042 32.5203 6.06894 32.1189 5.90282 31.6482C5.7367 31.1775 5.65364 30.693 5.65364 30.1947C8.78218 30.1947 10.3465 29.4471 10.3465 27.9521V7.1459H9.43281C6.52576 7.1459 4.85074 9.88683 4.40776 15.3687C2.46973 15.2856 1.22385 15.1334 0.670125 14.9119C0.670125 13.2784 0.794713 11.1881 1.04389 8.64095C1.29306 6.09382 1.63914 4.33575 2.08212 3.36673C3.35569 3.36673 4.49082 3.53285 5.48753 3.86508H21.684C22.736 3.53285 23.8712 3.36673 25.0894 3.36673ZM50.4229 31.7312C49.4262 32.6449 47.9034 33.1017 45.8546 33.1017C43.0583 33.1017 41.6602 32.2296 41.6602 30.4854V17.1129C41.6602 16.227 41.411 15.5487 40.9127 15.078C40.442 14.5796 39.7914 14.3305 38.9608 14.3305C38.4071 14.3305 37.8256 14.5104 37.2166 14.8703C36.6351 15.2303 36.206 15.6871 35.9291 16.2408V28.3674C35.9291 29.1703 36.0953 29.7517 36.4275 30.1116C36.7874 30.4438 37.3827 30.61 38.2133 30.61C38.2133 31.4682 37.8949 32.2158 37.2581 32.8525H28.0801C27.4433 32.2158 27.1249 31.4682 27.1249 30.61C27.9555 30.61 28.5369 30.4438 28.8692 30.1116C29.2291 29.7517 29.409 29.1703 29.409 28.3674V5.85849C29.409 5.16633 29.2152 4.65414 28.8276 4.3219C28.44 3.98967 27.7063 3.82355 26.6266 3.82355V2.12085C27.6233 1.59481 28.883 1.13799 30.4057 0.750381C31.9562 0.335088 33.202 0.127442 34.1434 0.127442C34.7802 0.127442 35.237 0.279717 35.5138 0.584266C35.7907 0.861128 35.9291 1.34564 35.9291 2.03779V10.2191L35.8461 13.5414C36.5936 12.5724 37.5349 11.7833 38.6701 11.1742C39.8329 10.5651 41.1065 10.2606 42.4908 10.2606C44.4288 10.2606 45.8962 10.7866 46.8929 11.8387C47.8896 12.8631 48.3879 14.3858 48.3879 16.4069V28.0351C48.3879 28.7273 48.5541 29.281 48.8863 29.6963C49.2462 30.1116 49.7446 30.3885 50.3813 30.5269L50.4229 31.7312ZM51.4978 26.9969C51.4978 25.1419 52.1068 23.6746 53.325 22.5948C54.5432 21.515 56.3428 20.9752 58.7239 20.9752C59.5544 20.9752 60.3989 21.0582 61.2571 21.2243C62.1431 21.3904 62.8629 21.6119 63.4167 21.8888V16.3654C63.4167 15.258 63.1398 14.4689 62.5861 13.9982C62.0324 13.4999 61.2848 13.2507 60.3435 13.2507C59.4298 13.2507 58.6823 13.4722 58.1009 13.9152C58.6269 14.0813 59.0146 14.372 59.2637 14.7873C59.5406 15.1749 59.679 15.6179 59.679 16.1162C59.679 17.0022 59.3606 17.722 58.7239 18.2758C58.0871 18.8295 57.2842 19.1063 56.3152 19.1063C55.2631 19.1063 54.4186 18.8018 53.7819 18.1927C53.1451 17.5836 52.8267 16.7945 52.8267 15.8255C52.8267 14.8565 53.1589 13.9429 53.8234 13.0846C54.4879 12.2263 55.4984 11.5342 56.855 11.0081C58.2393 10.4821 59.942 10.2191 61.9631 10.2191C64.7041 10.2191 66.7805 10.7866 68.1925 11.9218C69.6045 13.0292 70.3105 14.6627 70.3105 16.8222V27.8275C70.3105 29.1564 70.9473 29.9593 72.2209 30.2362V31.5651C71.861 32.0635 71.2657 32.4511 70.4351 32.728C69.6045 33.0048 68.7601 33.1432 67.9018 33.1432C66.0192 33.1432 64.6902 32.4926 63.915 31.1914C63.2782 31.7451 62.503 32.2158 61.5894 32.6034C60.6757 32.9633 59.6375 33.1432 58.4747 33.1432C56.3982 33.1432 54.7094 32.5757 53.4081 31.4405C52.1345 30.2777 51.4978 28.7965 51.4978 26.9969ZM63.4167 25.0866C63.1121 24.8928 62.7384 24.7266 62.2954 24.5882C61.8801 24.4498 61.4786 24.3806 61.091 24.3806C60.3158 24.3806 59.679 24.6297 59.1807 25.1281C58.6823 25.5988 58.4331 26.2909 58.4331 27.2046C58.4331 27.9521 58.6823 28.575 59.1807 29.0734C59.679 29.544 60.3435 29.7794 61.1741 29.7794C61.5894 29.7794 61.9908 29.724 62.3784 29.6133C62.7937 29.4748 63.1398 29.3087 63.4167 29.1149V25.0866ZM96.8656 31.7312C96.4503 32.1465 95.7028 32.4788 94.623 32.728C93.5709 32.9771 92.5604 33.1017 91.5914 33.1017C90.4009 33.1017 89.5149 32.8802 88.9335 32.4372C88.3798 31.9943 88.1029 31.2883 88.1029 30.3193V17.3621C88.1029 16.2823 87.8676 15.5071 87.3969 15.0365C86.9262 14.5658 86.3033 14.3305 85.5281 14.3305C84.393 14.3305 83.4378 14.7873 82.6626 15.7009V28.3674C82.6626 29.1703 82.8287 29.7517 83.1609 30.1116C83.5208 30.4715 84.1161 30.6515 84.9467 30.6515C84.9467 31.4821 84.6283 32.2158 83.9915 32.8525H74.5643C73.8999 32.1881 73.5676 31.4544 73.5676 30.6515C74.3982 30.6515 74.9935 30.4715 75.3534 30.1116C75.7133 29.7517 75.8933 29.1703 75.8933 28.3674V16.2408C75.8933 15.4933 75.6856 14.9672 75.2703 14.6627C74.8551 14.3305 74.1352 14.1643 73.1108 14.1643V12.2955C73.9968 11.7972 75.2427 11.3404 76.8485 10.9251C78.4819 10.5098 79.714 10.3021 80.5446 10.3021C81.1814 10.3021 81.6659 10.5098 81.9981 10.9251C82.358 11.3127 82.5657 12.0602 82.621 13.1676C83.3409 12.2817 84.2407 11.5895 85.3204 11.0912C86.4002 10.5651 87.6184 10.3021 88.975 10.3021C90.9684 10.3021 92.4358 10.8143 93.3771 11.8387C94.3461 12.8354 94.8307 14.4827 94.8307 16.7807V28.1182C94.8307 29.4748 95.4951 30.2777 96.8241 30.5269L96.8656 31.7312ZM121.067 31.4405C120.984 32.022 120.597 32.4788 119.905 32.811C119.24 33.1156 118.382 33.2678 117.33 33.2678C115.918 33.2678 114.741 32.9633 113.8 32.3542C112.886 31.7451 112.166 31.0114 111.64 30.1531C111.114 29.2949 110.547 28.1736 109.938 26.7893C109.328 25.4326 108.789 24.3944 108.318 23.6746C107.875 22.9547 107.294 22.4564 106.574 22.1795V28.5335C106.574 29.3364 106.74 29.9178 107.072 30.2777C107.432 30.61 108.041 30.7761 108.899 30.7761C108.899 31.6343 108.567 32.368 107.903 32.9771H98.7662C98.1017 32.3957 97.7695 31.662 97.7695 30.7761C98.6001 30.7761 99.1815 30.61 99.5137 30.2777C99.8736 29.9178 100.054 29.3364 100.054 28.5335V6.0246C100.054 5.33245 99.8598 4.82026 99.4722 4.48802C99.0846 4.1281 98.3509 3.94814 97.2711 3.94814V2.28697C98.2678 1.76093 99.5276 1.29026 101.05 0.87497C102.601 0.459677 103.819 0.252031 104.705 0.252031C105.369 0.252031 105.84 0.404305 106.117 0.708852C106.421 1.0134 106.574 1.51175 106.574 2.20391V20.6845L111.142 15.9501C111.668 15.4241 111.931 15.0088 111.931 14.7042C111.931 14.3166 111.626 13.9567 111.017 13.6245C110.436 13.2922 109.868 13.1261 109.315 13.1261C109.315 12.6555 109.398 12.1986 109.564 11.7556C109.73 11.3127 109.965 10.9251 110.27 10.5928H119.614C120.14 11.1189 120.403 11.9633 120.403 13.1261C119.738 13.1261 119.212 13.223 118.825 13.4168C118.465 13.6106 118.091 13.8875 117.704 14.2474L111.391 20.4768C112.415 20.6429 113.274 20.989 113.966 21.515C114.686 22.0134 115.336 22.7886 115.918 23.8407C116.61 25.0866 116.97 25.7372 116.998 25.7926C117.911 27.4814 118.59 28.6165 119.032 29.198C119.503 29.7517 120.168 30.167 121.026 30.4438L121.067 31.4405ZM154.707 3.86508C155.372 4.58492 155.704 5.45704 155.704 6.48143C155.012 6.48143 154.486 6.55064 154.126 6.68907C153.794 6.79982 153.517 6.97978 153.295 7.22895C153.102 7.47813 152.839 7.92111 152.506 8.55789L145.28 21.6812V28.1182C145.28 28.838 145.668 29.3641 146.443 29.6963C147.218 30.0285 148.16 30.1947 149.267 30.1947C149.267 30.693 149.184 31.1775 149.018 31.6482C148.852 32.1189 148.63 32.5203 148.353 32.8525H135.853C135.576 32.5203 135.355 32.1189 135.189 31.6482C135.023 31.1775 134.939 30.693 134.939 30.1947C135.992 30.1947 136.891 30.0285 137.639 29.6963C138.386 29.3641 138.76 28.838 138.76 28.1182V22.6363L130.496 8.30872C130.191 7.78268 129.748 7.35354 129.167 7.02131C128.585 6.66139 128.004 6.48143 127.423 6.48143C127.423 5.45704 127.755 4.58492 128.419 3.86508H139.632C140.269 4.55724 140.587 5.42935 140.587 6.48143C138.926 6.48143 138.096 7.02131 138.096 8.10107C138.096 8.59942 138.317 9.29158 138.76 10.1775L142.747 17.6943L147.315 9.09777C147.454 8.82091 147.523 8.55789 147.523 8.30872C147.523 7.81037 147.274 7.38123 146.775 7.02131C146.305 6.66139 145.737 6.48143 145.073 6.48143C145.073 5.42935 145.391 4.55724 146.028 3.86508H154.707ZM163.341 33.3924C160.295 33.3924 157.859 32.4372 156.031 30.5269C154.204 28.5889 153.291 25.8341 153.291 22.2626C153.291 19.7154 153.72 17.5421 154.578 15.7425C155.464 13.9429 156.696 12.5862 158.274 11.6726C159.852 10.7589 161.679 10.3021 163.756 10.3021C165.749 10.3021 167.494 10.7451 168.989 11.6311C170.511 12.4893 171.688 13.7629 172.519 15.4518C173.377 17.1406 173.806 19.1894 173.806 21.5981C173.806 24.1175 173.363 26.2632 172.477 28.0351C171.619 29.8071 170.401 31.1498 168.823 32.0635C167.244 32.9494 165.417 33.3924 163.341 33.3924ZM163.673 30.4023C164.642 30.4023 165.362 29.8486 165.832 28.7411C166.303 27.6337 166.538 25.5849 166.538 22.5948C166.538 20.0754 166.414 18.1373 166.165 16.7807C165.915 15.4241 165.569 14.4966 165.126 13.9982C164.683 13.4999 164.116 13.2507 163.424 13.2507C162.455 13.2507 161.721 13.8044 161.223 14.9119C160.752 16.0193 160.517 18.0958 160.517 21.1413C160.517 23.633 160.641 25.5572 160.89 26.9138C161.14 28.2428 161.486 29.1564 161.929 29.6548C162.399 30.1531 162.981 30.4023 163.673 30.4023ZM195.332 27.9936C195.332 28.6581 195.498 29.2118 195.83 29.6548C196.19 30.0978 196.689 30.3469 197.326 30.4023V31.5651C196.883 32.0635 196.19 32.4511 195.249 32.728C194.335 33.0048 193.408 33.1432 192.467 33.1432C191.525 33.1432 190.722 32.8941 190.058 32.3957C189.393 31.8974 188.95 31.2052 188.729 30.3193C187.4 32.2019 185.504 33.1432 183.039 33.1432C181.101 33.1432 179.593 32.548 178.513 31.3575C177.433 30.167 176.893 28.5612 176.893 26.5401V15.1195C176.893 14.6489 176.713 14.3166 176.353 14.1228C176.021 13.929 175.523 13.8321 174.858 13.8321V12.0048C175.273 11.6726 176.063 11.3404 177.225 11.0081C178.416 10.6759 179.676 10.5098 181.005 10.5098C181.78 10.5098 182.347 10.5651 182.707 10.6759C183.067 10.7589 183.316 10.9527 183.455 11.2573C183.593 11.5618 183.662 12.0464 183.662 12.7108V26.6647C183.662 27.5229 183.801 28.1736 184.078 28.6165C184.382 29.0318 184.867 29.2395 185.531 29.2395C186.085 29.2395 186.625 29.0734 187.151 28.7411C187.705 28.3812 188.175 27.9521 188.563 27.4537V15.1195C188.563 14.2613 187.788 13.8321 186.237 13.8321V12.0048C186.68 11.6449 187.483 11.3127 188.646 11.0081C189.836 10.6759 191.138 10.5098 192.55 10.5098C193.685 10.5098 194.432 10.6482 194.792 10.9251C195.152 11.1742 195.332 11.7695 195.332 12.7108V27.9936ZM208.428 20.0615L206.393 3.82355C206.365 3.60206 206.351 3.31136 206.351 2.95144C206.351 1.06877 207.32 0.127442 209.258 0.127442H211.044C213.01 0.127442 213.993 1.06877 213.993 2.95144C213.993 3.08987 213.965 3.38057 213.91 3.82355L211.833 20.0615H208.428ZM214.366 29.281C214.366 30.4992 213.979 31.4959 213.204 32.2711C212.428 33.0187 211.404 33.3924 210.131 33.3924C208.885 33.3924 207.874 33.0187 207.099 32.2711C206.351 31.4959 205.978 30.4992 205.978 29.281C205.978 28.0351 206.351 27.0384 207.099 26.2909C207.874 25.5434 208.885 25.1696 210.131 25.1696C211.404 25.1696 212.428 25.5434 213.204 26.2909C213.979 27.0384 214.366 28.0351 214.366 29.281Z" fill="#FF9300"/>
</svg>
