<svg width="969" height="152" viewBox="0 0 969 152" fill="none" xmlns="http://www.w3.org/2000/svg">
<path d="M111.079 15.4127C113.085 19.8006 114.652 27.7615 115.78 39.2954C116.909 50.8292 117.473 60.2945 117.473 67.6912C115.843 68.318 113.273 68.8195 109.763 69.1956C106.378 69.5717 103.306 69.7598 100.548 69.7598C99.7959 59.7303 98.5422 52.0202 96.7871 46.6294C95.1573 41.2386 92.9007 37.5402 90.0172 35.5343C87.1337 33.5284 83.3727 32.5255 78.7341 32.5255H75.5372V126.74C75.5372 130.25 77.167 132.82 80.4265 134.45C83.6861 136.079 88.7008 136.894 95.4707 136.894C95.4707 139.151 95.0946 141.345 94.3424 143.476C93.5902 145.607 92.5246 147.425 91.1455 148.93H27.2078C25.9541 147.425 24.9512 145.607 24.199 143.476C23.4468 141.345 23.0707 139.151 23.0707 136.894C37.2372 136.894 44.3205 133.509 44.3205 126.74V32.5255H40.1834C27.0198 32.5255 19.435 44.9369 17.4291 69.7598C8.65334 69.3837 3.01178 68.6941 0.504416 67.6912C0.504416 60.2945 1.06857 50.8292 2.19688 39.2954C3.3252 27.7615 4.8923 19.8006 6.89819 15.4127C12.6651 15.4127 17.8052 16.1649 22.3185 17.6694H95.6587C100.423 16.1649 105.563 15.4127 111.079 15.4127ZM225.794 143.852C221.28 147.989 214.385 150.058 205.108 150.058C192.446 150.058 186.115 146.109 186.115 138.211V77.658C186.115 73.6462 184.986 70.5747 182.73 68.4434C180.598 66.1868 177.652 65.0585 173.891 65.0585C171.384 65.0585 168.751 65.8734 165.993 67.5032C163.36 69.1329 161.417 71.2015 160.163 73.7089V128.62C160.163 132.256 160.916 134.888 162.42 136.518C164.05 138.023 166.745 138.775 170.506 138.775C170.506 142.661 169.065 146.046 166.181 148.93H124.622C121.738 146.046 120.296 142.661 120.296 138.775C124.057 138.775 126.69 138.023 128.195 136.518C129.824 134.888 130.639 132.256 130.639 128.62V26.6959C130.639 23.5617 129.762 21.2424 128.007 19.7379C126.251 18.2335 122.929 17.4813 118.04 17.4813V9.77118C122.553 7.38918 128.257 5.32061 135.153 3.56545C142.173 1.68494 147.815 0.744677 152.077 0.744677C154.961 0.744677 157.029 1.4342 158.283 2.81326C159.537 4.06694 160.163 6.26087 160.163 9.39507V46.4413L159.787 61.4855C163.172 57.0976 167.435 53.5246 172.575 50.7665C177.84 48.0084 183.607 46.6294 189.876 46.6294C198.651 46.6294 205.296 49.0114 209.809 53.7754C214.322 58.414 216.579 65.3092 216.579 74.4611V127.116C216.579 130.25 217.331 132.757 218.836 134.638C220.465 136.518 222.722 137.772 225.606 138.399L225.794 143.852ZM230.661 122.414C230.661 114.015 233.419 107.37 238.935 102.481C244.451 97.5915 252.6 95.1468 263.382 95.1468C267.143 95.1468 270.967 95.5229 274.853 96.2751C278.865 97.0273 282.124 98.0303 284.632 99.284V74.273C284.632 69.2583 283.378 65.6853 280.871 63.5541C278.363 61.2974 274.978 60.1691 270.716 60.1691C266.579 60.1691 263.194 61.1721 260.561 63.178C262.943 63.9302 264.698 65.2465 265.827 67.127C267.08 68.8822 267.707 70.8881 267.707 73.1447C267.707 77.1565 266.265 80.4161 263.382 82.9234C260.498 85.4308 256.863 86.6845 252.475 86.6845C247.711 86.6845 243.887 85.3054 241.004 82.5473C238.12 79.7892 236.679 76.2162 236.679 71.8283C236.679 67.4405 238.183 63.3033 241.192 59.4169C244.201 55.5305 248.777 52.3963 254.92 50.0143C261.188 47.6323 268.898 46.4413 278.05 46.4413C290.461 46.4413 299.864 49.0114 306.258 54.1515C312.652 59.1662 315.848 66.5629 315.848 76.3416V126.175C315.848 132.193 318.732 135.829 324.499 137.082V143.1C322.869 145.357 320.174 147.112 316.413 148.366C312.652 149.619 308.828 150.246 304.941 150.246C296.416 150.246 290.399 147.3 286.888 141.408C284.005 143.915 280.495 146.046 276.358 147.801C272.22 149.431 267.519 150.246 262.254 150.246C252.851 150.246 245.204 147.676 239.311 142.536C233.544 137.27 230.661 130.563 230.661 122.414ZM284.632 113.764C283.253 112.886 281.56 112.134 279.554 111.507C277.674 110.88 275.856 110.567 274.101 110.567C270.591 110.567 267.707 111.695 265.451 113.952C263.194 116.083 262.066 119.217 262.066 123.355C262.066 126.74 263.194 129.56 265.451 131.817C267.707 133.948 270.716 135.014 274.477 135.014C276.358 135.014 278.175 134.763 279.931 134.262C281.811 133.635 283.378 132.883 284.632 132.005V113.764ZM436.094 143.852C434.214 145.733 430.829 147.237 425.94 148.366C421.176 149.494 416.6 150.058 412.212 150.058C406.821 150.058 402.809 149.055 400.176 147.049C397.669 145.043 396.415 141.846 396.415 137.459V78.7863C396.415 73.8969 395.35 70.3866 393.219 68.2554C391.087 66.1241 388.267 65.0585 384.756 65.0585C379.616 65.0585 375.291 67.1271 371.781 71.2642V128.62C371.781 132.256 372.533 134.888 374.037 136.518C375.667 138.148 378.362 138.963 382.123 138.963C382.123 142.724 380.682 146.046 377.798 148.93H335.11C332.102 145.921 330.597 142.599 330.597 138.963C334.358 138.963 337.054 138.148 338.683 136.518C340.313 134.888 341.128 132.256 341.128 128.62V73.7089C341.128 70.3239 340.188 67.9419 338.307 66.5629C336.427 65.0585 333.167 64.3063 328.529 64.3063V55.8439C332.54 53.5873 338.182 51.5187 345.453 49.6382C352.85 47.7577 358.429 46.8174 362.19 46.8174C365.073 46.8174 367.267 47.7577 368.772 49.6382C370.402 51.3934 371.342 54.7783 371.593 59.793C374.852 55.7812 378.927 52.647 383.816 50.3904C388.705 48.0084 394.221 46.8174 400.365 46.8174C409.391 46.8174 416.036 49.1367 420.298 53.7754C424.686 58.2886 426.88 65.748 426.88 76.1535V127.492C426.88 133.635 429.889 137.27 435.906 138.399L436.094 143.852ZM545.685 142.536C545.308 145.169 543.553 147.237 540.419 148.742C537.41 150.121 533.524 150.81 528.76 150.81C522.366 150.81 517.038 149.431 512.775 146.673C508.638 143.915 505.379 140.593 502.997 136.706C500.615 132.82 498.045 127.742 495.287 121.474C492.529 115.331 490.084 110.63 487.953 107.37C485.947 104.111 483.314 101.854 480.054 100.6V129.372C480.054 133.008 480.807 135.641 482.311 137.27C483.941 138.775 486.699 139.527 490.585 139.527C490.585 143.413 489.081 146.736 486.072 149.494H444.701C441.692 146.861 440.187 143.539 440.187 139.527C443.948 139.527 446.581 138.775 448.086 137.27C449.715 135.641 450.53 133.008 450.53 129.372V27.4481C450.53 24.3139 449.653 21.9946 447.898 20.4901C446.142 18.8604 442.82 18.0455 437.931 18.0455V10.5234C442.444 8.14139 448.148 6.01013 455.044 4.12961C462.064 2.2491 467.58 1.30884 471.592 1.30884C474.601 1.30884 476.732 1.99836 477.986 3.37741C479.365 4.75646 480.054 7.01308 480.054 10.1473V93.8304L500.74 72.3925C503.122 70.0105 504.313 68.13 504.313 66.7509C504.313 64.9958 502.934 63.366 500.176 61.8616C497.543 60.3572 494.973 59.605 492.466 59.605C492.466 57.4737 492.842 55.4051 493.594 53.3993C494.346 51.3934 495.412 49.6382 496.791 48.1338H539.103C541.485 50.5158 542.676 54.3395 542.676 59.605C539.667 59.605 537.285 60.0438 535.53 60.9213C533.9 61.7989 532.208 63.0526 530.452 64.6824L501.868 92.8902C506.507 93.6424 510.394 95.2095 513.528 97.5915C516.787 99.8481 519.733 103.358 522.366 108.122C525.5 113.764 527.13 116.71 527.256 116.961C531.393 124.608 534.464 129.748 536.47 132.381C538.601 134.888 541.61 136.769 545.497 138.023L545.685 142.536ZM698.013 17.6694C701.021 20.9289 702.526 24.878 702.526 29.5166C699.392 29.5166 697.01 29.8301 695.38 30.4569C693.875 30.9584 692.622 31.7733 691.619 32.9016C690.741 34.0299 689.55 36.0358 688.046 38.9192L655.325 98.3437V127.492C655.325 130.751 657.08 133.133 660.59 134.638C664.1 136.142 668.363 136.894 673.378 136.894C673.378 139.151 673.002 141.345 672.249 143.476C671.497 145.607 670.494 147.425 669.241 148.93H612.637C611.383 147.425 610.38 145.607 609.628 143.476C608.876 141.345 608.5 139.151 608.5 136.894C613.264 136.894 617.338 136.142 620.723 134.638C624.108 133.133 625.801 130.751 625.801 127.492V102.669L588.378 37.7909C586.999 35.4089 584.993 33.4657 582.36 31.9613C579.728 30.3315 577.095 29.5166 574.462 29.5166C574.462 24.878 575.967 20.9289 578.976 17.6694H629.75C632.633 20.8036 634.075 24.7527 634.075 29.5166C626.553 29.5166 622.792 31.9613 622.792 36.8507C622.792 39.1073 623.795 42.2415 625.801 46.2533L643.854 80.2907L664.539 41.3639C665.166 40.1102 665.48 38.9192 665.48 37.7909C665.48 35.5343 664.351 33.5911 662.095 31.9613C659.963 30.3315 657.393 29.5166 654.384 29.5166C654.384 24.7527 655.826 20.8036 658.71 17.6694H698.013ZM737.105 151.374C723.315 151.374 712.282 147.049 704.008 138.399C695.734 129.623 691.597 117.149 691.597 100.976C691.597 89.4426 693.54 79.6012 697.426 71.4522C701.438 63.3033 707.017 57.1603 714.163 53.0231C721.309 48.886 729.583 46.8174 738.986 46.8174C748.012 46.8174 755.91 48.8233 762.68 52.8351C769.576 56.7215 774.904 62.4884 778.665 70.1359C782.551 77.7833 784.494 87.0606 784.494 97.9676C784.494 109.376 782.488 119.092 778.477 127.116C774.59 135.139 769.074 141.22 761.928 145.357C754.782 149.368 746.508 151.374 737.105 151.374ZM738.61 137.835C742.998 137.835 746.257 135.327 748.388 130.313C750.52 125.298 751.585 116.021 751.585 102.481C751.585 91.0723 751.021 82.2966 749.893 76.1535C748.764 70.0105 747.197 65.8107 745.191 63.5541C743.186 61.2974 740.616 60.1691 737.481 60.1691C733.093 60.1691 729.771 62.6765 727.515 67.6912C725.383 72.7059 724.318 82.1085 724.318 95.899C724.318 107.182 724.882 115.895 726.01 122.038C727.138 128.056 728.706 132.193 730.711 134.45C732.843 136.706 735.475 137.835 738.61 137.835ZM881.968 126.928C881.968 129.936 882.721 132.444 884.225 134.45C885.855 136.456 888.111 137.584 890.995 137.835V143.1C888.989 145.357 885.855 147.112 881.592 148.366C877.455 149.619 873.255 150.246 868.993 150.246C864.73 150.246 861.095 149.118 858.086 146.861C855.077 144.604 853.071 141.47 852.068 137.459C846.05 145.984 837.463 150.246 826.305 150.246C817.529 150.246 810.697 147.551 805.807 142.16C800.918 136.769 798.473 129.498 798.473 120.346V68.6315C798.473 66.5002 797.658 64.9958 796.029 64.1182C794.524 63.2406 792.268 62.8019 789.259 62.8019V54.5276C791.139 53.0231 794.712 51.5187 799.978 50.0143C805.369 48.5099 811.073 47.7577 817.09 47.7577C820.601 47.7577 823.171 48.0084 824.801 48.5099C826.43 48.886 827.559 49.7636 828.185 51.1426C828.812 52.5217 829.126 54.7156 829.126 57.7244V120.91C829.126 124.796 829.753 127.742 831.006 129.748C832.385 131.629 834.579 132.569 837.588 132.569C840.095 132.569 842.54 131.817 844.922 130.313C847.429 128.683 849.561 126.74 851.316 124.483V68.6315C851.316 64.7451 847.806 62.8019 840.785 62.8019V54.5276C842.791 52.8978 846.427 51.3934 851.692 50.0143C857.083 48.5099 862.975 47.7577 869.369 47.7577C874.509 47.7577 877.894 48.3845 879.524 49.6382C881.153 50.7665 881.968 53.4619 881.968 57.7244V126.928ZM941.268 91.0097L932.053 17.4813C931.928 16.4784 931.865 15.162 931.865 13.5322C931.865 5.00719 936.253 0.744677 945.029 0.744677H953.115C962.016 0.744677 966.467 5.00719 966.467 13.5322C966.467 14.1591 966.341 15.4754 966.091 17.4813L956.688 91.0097H941.268ZM968.159 132.757C968.159 138.273 966.404 142.787 962.894 146.297C959.383 149.682 954.745 151.374 948.978 151.374C943.336 151.374 938.76 149.682 935.25 146.297C931.865 142.787 930.173 138.273 930.173 132.757C930.173 127.116 931.865 122.602 935.25 119.217C938.76 115.833 943.336 114.14 948.978 114.14C954.745 114.14 959.383 115.833 962.894 119.217C966.404 122.602 968.159 127.116 968.159 132.757Z" fill="#FF9300"/>
</svg>
