<svg width="362" height="57" viewBox="0 0 362 57" fill="none" xmlns="http://www.w3.org/2000/svg">
<path d="M42.0193 5.54582C42.766 7.17926 43.3494 10.1428 43.7694 14.4364C44.1895 18.73 44.3995 22.2536 44.3995 25.0071C43.7928 25.2404 42.836 25.4271 41.5293 25.5671C40.2692 25.7071 39.1258 25.7771 38.0991 25.7771C37.819 22.0436 37.3523 19.1734 36.699 17.1666C36.0923 15.1598 35.2522 13.783 34.1788 13.0363C33.1054 12.2896 31.7053 11.9162 29.9785 11.9162H28.7885V46.9885C28.7885 48.2952 29.3952 49.252 30.6086 49.8587C31.822 50.4654 33.6888 50.7687 36.2089 50.7687C36.2089 51.6088 36.0689 52.4255 35.7889 53.2189C35.5089 54.0123 35.1122 54.689 34.5988 55.249H10.7973C10.3306 54.689 9.95725 54.0123 9.67723 53.2189C9.39722 52.4255 9.25721 51.6088 9.25721 50.7687C14.5309 50.7687 17.1677 49.5087 17.1677 46.9885V11.9162H15.6276C10.7273 11.9162 7.90379 16.5365 7.15707 25.7771C3.8902 25.6371 1.79006 25.3804 0.856667 25.0071C0.856667 22.2536 1.06668 18.73 1.48671 14.4364C1.90673 10.1428 2.49011 7.17926 3.23682 5.54582C5.38363 5.54582 7.29708 5.82584 8.97719 6.38588H36.2789C38.0524 5.82584 39.9659 5.54582 42.0193 5.54582ZM84.7231 53.3589C83.043 54.899 80.4762 55.6691 77.0226 55.6691C72.309 55.6691 69.9522 54.199 69.9522 51.2588V28.7173C69.9522 27.2239 69.5321 26.0805 68.6921 25.2871C67.8987 24.447 66.802 24.027 65.4019 24.027C64.4685 24.027 63.4884 24.3304 62.4617 24.9371C61.4816 25.5438 60.7583 26.3138 60.2916 27.2472V47.6885C60.2916 49.042 60.5716 50.022 61.1316 50.6287C61.7383 51.1888 62.7417 51.4688 64.1418 51.4688C64.1418 52.9155 63.6051 54.1756 62.5317 55.249H47.0607C45.9873 54.1756 45.4506 52.9155 45.4506 51.4688C46.8507 51.4688 47.8308 51.1888 48.3908 50.6287C48.9975 50.022 49.3008 49.042 49.3008 47.6885V9.7461C49.3008 8.57935 48.9742 7.71597 48.3208 7.15593C47.6674 6.59589 46.4307 6.31587 44.6105 6.31587V3.44569C46.2907 2.55897 48.4141 1.78891 50.981 1.13554C53.5945 0.435495 55.6946 0.0854731 57.2814 0.0854731C58.3548 0.0854731 59.1248 0.342157 59.5915 0.855525C60.0582 1.32222 60.2916 2.13894 60.2916 3.30568V17.0966L60.1515 22.6969C61.4116 21.0635 62.9984 19.7334 64.9119 18.7067C66.872 17.6799 69.0188 17.1666 71.3523 17.1666C74.6191 17.1666 77.0926 18.0533 78.7727 19.8267C80.4529 21.5535 81.2929 24.1204 81.2929 27.5272V47.1285C81.2929 48.2952 81.5729 49.2286 82.133 49.9287C82.7397 50.6287 83.5797 51.0954 84.6531 51.3288L84.7231 53.3589ZM86.535 45.3784C86.535 42.2515 87.5617 39.778 89.6152 37.9579C91.6687 36.1378 94.7022 35.2277 98.7158 35.2277C100.116 35.2277 101.539 35.3677 102.986 35.6478C104.479 35.9278 105.693 36.3011 106.626 36.7678V27.4572C106.626 25.5904 106.16 24.2604 105.226 23.467C104.293 22.6269 103.033 22.2069 101.446 22.2069C99.9059 22.2069 98.6458 22.5803 97.6657 23.327C98.5524 23.607 99.2058 24.097 99.6259 24.7971C100.093 25.4504 100.326 26.1972 100.326 27.0372C100.326 28.5306 99.7892 29.744 98.7158 30.6774C97.6424 31.6108 96.289 32.0775 94.6555 32.0775C92.8821 32.0775 91.4587 31.5642 90.3853 30.5374C89.3119 29.5107 88.7752 28.1806 88.7752 26.5472C88.7752 24.9137 89.3352 23.3736 90.4553 21.9269C91.5753 20.4801 93.2788 19.3134 95.5656 18.4267C97.8991 17.5399 100.769 17.0966 104.176 17.0966C108.796 17.0966 112.297 18.0533 114.677 19.9668C117.057 21.8335 118.247 24.5871 118.247 28.2273V46.7785C118.247 49.0186 119.32 50.372 121.467 50.8387V53.0789C120.861 53.9189 119.857 54.5723 118.457 55.039C117.057 55.5057 115.634 55.7391 114.187 55.7391C111.013 55.7391 108.773 54.6423 107.466 52.4488C106.393 53.3822 105.086 54.1756 103.546 54.829C102.006 55.4357 100.256 55.7391 98.2958 55.7391C94.7955 55.7391 91.9487 54.7823 89.7552 52.8689C87.6084 50.9087 86.535 48.4119 86.535 45.3784ZM106.626 42.1582C106.113 41.8315 105.483 41.5515 104.736 41.3181C104.036 41.0848 103.359 40.9681 102.706 40.9681C101.399 40.9681 100.326 41.3881 99.4858 42.2282C98.6458 43.0216 98.2258 44.1883 98.2258 45.7284C98.2258 46.9885 98.6458 48.0386 99.4858 48.8786C100.326 49.672 101.446 50.0687 102.846 50.0687C103.546 50.0687 104.223 49.9754 104.876 49.7887C105.576 49.5553 106.16 49.2753 106.626 48.9486V42.1582ZM163.01 53.3589C162.31 54.0589 161.05 54.619 159.23 55.039C157.456 55.459 155.753 55.6691 154.119 55.6691C152.113 55.6691 150.619 55.2957 149.639 54.549C148.706 53.8023 148.239 52.6122 148.239 50.9787V29.1373C148.239 27.3172 147.842 26.0105 147.049 25.2171C146.256 24.4237 145.206 24.027 143.899 24.027C141.985 24.027 140.375 24.7971 139.068 26.3372V47.6885C139.068 49.042 139.348 50.022 139.908 50.6287C140.515 51.2354 141.519 51.5388 142.919 51.5388C142.919 52.9389 142.382 54.1756 141.309 55.249H125.418C124.297 54.129 123.737 52.8922 123.737 51.5388C125.138 51.5388 126.141 51.2354 126.748 50.6287C127.354 50.022 127.658 49.042 127.658 47.6885V27.2472C127.658 25.9871 127.308 25.1004 126.608 24.5871C125.908 24.027 124.694 23.747 122.967 23.747V20.5968C124.461 19.7567 126.561 18.9867 129.268 18.2866C132.021 17.5866 134.098 17.2366 135.498 17.2366C136.572 17.2366 137.388 17.5866 137.948 18.2866C138.555 18.94 138.905 20.2001 138.998 22.0669C140.212 20.5735 141.729 19.4067 143.549 18.5667C145.369 17.6799 147.422 17.2366 149.709 17.2366C153.069 17.2366 155.543 18.1 157.13 19.8267C158.763 21.5069 159.58 24.2837 159.58 28.1573V47.2685C159.58 49.5553 160.7 50.9087 162.94 51.3288L163.01 53.3589ZM203.806 52.8689C203.666 53.8489 203.013 54.619 201.846 55.179C200.726 55.6924 199.279 55.9491 197.506 55.9491C195.126 55.9491 193.142 55.4357 191.555 54.409C190.015 53.3822 188.802 52.1455 187.915 50.6987C187.028 49.252 186.072 47.3618 185.045 45.0284C184.018 42.7416 183.108 40.9914 182.315 39.778C181.568 38.5646 180.588 37.7246 179.375 37.2579V47.9686C179.375 49.322 179.655 50.302 180.215 50.9087C180.821 51.4688 181.848 51.7488 183.295 51.7488C183.295 53.1956 182.735 54.4323 181.615 55.459H166.214C165.094 54.479 164.534 53.2422 164.534 51.7488C165.934 51.7488 166.914 51.4688 167.474 50.9087C168.081 50.302 168.384 49.322 168.384 47.9686V10.0261C168.384 8.85937 168.057 7.99598 167.404 7.43595C166.75 6.82924 165.514 6.52589 163.694 6.52589V3.72571C165.374 2.83898 167.497 2.0456 170.064 1.34555C172.678 0.64551 174.731 0.295488 176.224 0.295488C177.344 0.295488 178.138 0.552171 178.605 1.06554C179.118 1.5789 179.375 2.41896 179.375 3.5857V34.7377L187.075 26.7572C187.962 25.8705 188.405 25.1704 188.405 24.6571C188.405 24.0037 187.892 23.397 186.865 22.8369C185.885 22.2769 184.928 21.9969 183.995 21.9969C183.995 21.2035 184.135 20.4335 184.415 19.6867C184.695 18.94 185.092 18.2866 185.605 17.7266H201.356C202.243 18.6133 202.686 20.0368 202.686 21.9969C201.566 21.9969 200.679 22.1602 200.026 22.4869C199.419 22.8136 198.789 23.2803 198.136 23.887L187.495 34.3877C189.222 34.6677 190.669 35.2511 191.835 36.1378C193.049 36.9778 194.146 38.2846 195.126 40.058C196.292 42.1582 196.899 43.2549 196.946 43.3483C198.486 46.1951 199.629 48.1086 200.376 49.0886C201.169 50.022 202.289 50.7221 203.736 51.1888L203.806 52.8689ZM260.512 6.38588C261.632 7.59929 262.192 9.06938 262.192 10.7962C261.025 10.7962 260.139 10.9128 259.532 11.1462C258.972 11.3329 258.505 11.6362 258.132 12.0562C257.805 12.4763 257.362 13.223 256.802 14.2964L244.621 36.4178V47.2685C244.621 48.4819 245.274 49.3686 246.581 49.9287C247.888 50.4887 249.475 50.7687 251.341 50.7687C251.341 51.6088 251.201 52.4255 250.921 53.2189C250.641 54.0123 250.268 54.689 249.801 55.249H228.73C228.263 54.689 227.89 54.0123 227.61 53.2189C227.33 52.4255 227.19 51.6088 227.19 50.7687C228.963 50.7687 230.48 50.4887 231.74 49.9287C233 49.3686 233.63 48.4819 233.63 47.2685V38.0279L219.699 13.8764C219.186 12.9896 218.439 12.2663 217.459 11.7062C216.479 11.0995 215.499 10.7962 214.519 10.7962C214.519 9.06938 215.079 7.59929 216.199 6.38588H235.1C236.174 7.55262 236.71 9.02271 236.71 10.7962C233.91 10.7962 232.51 11.7062 232.51 13.5263C232.51 14.3664 232.884 15.5331 233.63 17.0266L240.351 29.6974L248.051 15.2064C248.285 14.7398 248.401 14.2964 248.401 13.8764C248.401 13.0363 247.981 12.3129 247.141 11.7062C246.348 11.0995 245.391 10.7962 244.271 10.7962C244.271 9.02271 244.808 7.55262 245.881 6.38588H260.512ZM275.065 56.1591C269.931 56.1591 265.824 54.549 262.744 51.3288C259.664 48.0619 258.124 43.4183 258.124 37.3979C258.124 33.1043 258.847 29.4407 260.294 26.4072C261.787 23.3736 263.864 21.0868 266.524 19.5467C269.184 18.0066 272.264 17.2366 275.765 17.2366C279.125 17.2366 282.065 17.9833 284.585 19.4767C287.152 20.9235 289.136 23.0703 290.536 25.9171C291.982 28.764 292.706 32.2175 292.706 36.2778C292.706 40.5247 291.959 44.1416 290.466 47.1285C289.019 50.1154 286.965 52.3788 284.305 53.9189C281.645 55.4124 278.565 56.1591 275.065 56.1591ZM275.625 51.1188C277.258 51.1188 278.472 50.1854 279.265 48.3186C280.058 46.4518 280.455 42.9982 280.455 37.9579C280.455 33.711 280.245 30.4441 279.825 28.1573C279.405 25.8705 278.822 24.307 278.075 23.467C277.328 22.6269 276.371 22.2069 275.205 22.2069C273.571 22.2069 272.334 23.1403 271.494 25.0071C270.701 26.8739 270.304 30.3741 270.304 35.5078C270.304 39.708 270.514 42.9516 270.934 45.2384C271.354 47.4785 271.938 49.0186 272.685 49.8587C273.478 50.6987 274.458 51.1188 275.625 51.1188ZM328.992 47.0585C328.992 48.1786 329.272 49.112 329.832 49.8587C330.438 50.6054 331.278 51.0254 332.352 51.1188V53.0789C331.605 53.9189 330.438 54.5723 328.852 55.039C327.312 55.5057 325.748 55.7391 324.161 55.7391C322.575 55.7391 321.221 55.319 320.101 54.479C318.981 53.6389 318.234 52.4722 317.861 50.9787C315.621 54.1523 312.424 55.7391 308.27 55.7391C305.003 55.7391 302.46 54.7357 300.64 52.7289C298.82 50.7221 297.91 48.0152 297.91 44.6083V25.3571C297.91 24.5637 297.606 24.0037 297 23.677C296.44 23.3503 295.599 23.187 294.479 23.187V20.1068C295.179 19.5467 296.51 18.9867 298.47 18.4267C300.476 17.8666 302.6 17.5866 304.84 17.5866C306.147 17.5866 307.104 17.6799 307.71 17.8666C308.317 18.0066 308.737 18.3333 308.97 18.8467C309.204 19.36 309.32 20.1768 309.32 21.2968V44.8184C309.32 46.2651 309.554 47.3618 310.02 48.1086C310.534 48.8086 311.35 49.1586 312.471 49.1586C313.404 49.1586 314.314 48.8786 315.201 48.3186C316.134 47.7119 316.928 46.9885 317.581 46.1484V25.3571C317.581 23.9103 316.274 23.187 313.661 23.187V20.1068C314.407 19.5001 315.761 18.94 317.721 18.4267C319.728 17.8666 321.921 17.5866 324.301 17.5866C326.215 17.5866 327.475 17.8199 328.082 18.2866C328.688 18.7067 328.992 19.7101 328.992 21.2968V47.0585ZM351.067 33.6876L347.636 6.31587C347.59 5.94252 347.566 5.45249 347.566 4.84578C347.566 1.67224 349.2 0.0854731 352.467 0.0854731H355.477C358.79 0.0854731 360.447 1.67224 360.447 4.84578C360.447 5.07913 360.4 5.56916 360.307 6.31587L356.807 33.6876H351.067ZM361.077 49.2286C361.077 51.2821 360.424 52.9622 359.117 54.269C357.81 55.529 356.083 56.1591 353.937 56.1591C351.837 56.1591 350.133 55.529 348.826 54.269C347.566 52.9622 346.936 51.2821 346.936 49.2286C346.936 47.1285 347.566 45.4484 348.826 44.1883C350.133 42.9282 351.837 42.2982 353.937 42.2982C356.083 42.2982 357.81 42.9282 359.117 44.1883C360.424 45.4484 361.077 47.1285 361.077 49.2286Z" fill="#FF9300"/>
</svg>
